<svg width="30" height="30" viewBox="0 0 30 30" fill="none" xmlns="http://www.w3.org/2000/svg">
<path d="M27.4576 0.15625H2.54238C1.225 0.15625 0.15625 1.225 0.15625 2.54238V27.4576C0.15625 28.775 1.225 29.8438 2.54238 29.8438H27.4576C28.775 29.8438 29.8438 28.775 29.8438 27.4576V2.54238C29.8438 1.225 28.775 0.15625 27.4576 0.15625ZM27.4576 27.4688C10.84 27.465 2.53125 27.4613 2.53125 27.4576C2.53496 10.84 2.53867 2.53125 2.54238 2.53125C19.16 2.53496 27.4688 2.53867 27.4688 2.54238C27.465 19.16 27.4613 27.4688 27.4576 27.4688ZM4.55742 11.2854H8.9623V25.4537H4.55742V11.2854ZM6.76172 9.34824C8.16816 9.34824 9.31484 8.20527 9.31484 6.79512C9.31484 6.45984 9.24881 6.12784 9.1205 5.81808C8.99219 5.50832 8.80413 5.22686 8.56705 4.98979C8.32997 4.75271 8.04852 4.56464 7.73876 4.43634C7.429 4.30803 7.097 4.24199 6.76172 4.24199C6.42644 4.24199 6.09444 4.30803 5.78468 4.43634C5.47492 4.56464 5.19347 4.75271 4.95639 4.98979C4.71931 5.22686 4.53125 5.50832 4.40294 5.81808C4.27463 6.12784 4.20859 6.45984 4.20859 6.79512C4.20488 8.20527 5.34785 9.34824 6.76172 9.34824ZM16.1244 18.4438C16.1244 16.5957 16.477 14.807 18.7666 14.807C21.0229 14.807 21.0562 16.9186 21.0562 18.5625V25.4537H25.4574V17.683C25.4574 13.8682 24.6336 10.9328 20.1768 10.9328C18.0355 10.9328 16.5994 12.1092 16.0094 13.2225H15.95V11.2854H11.7232V25.4537H16.1244V18.4438Z" fill="white"/>
</svg>
