<svg width="36" height="36" viewBox="0 0 36 36" fill="none" xmlns="http://www.w3.org/2000/svg">
<path d="M25.5 13.4205C24.948 13.6605 24.3555 13.8255 23.733 13.8975C24.369 13.5225 24.855 12.9285 25.086 12.222C24.4799 12.5752 23.8187 12.8237 23.13 12.957C22.8403 12.6534 22.4918 12.4119 22.1058 12.2474C21.7197 12.0829 21.3042 11.9987 20.8845 12C19.185 12 17.808 13.3575 17.808 15.03C17.808 15.267 17.835 15.498 17.8875 15.72C16.6685 15.6621 15.4749 15.3508 14.383 14.8058C13.291 14.2609 12.3246 13.4943 11.5455 12.555C11.2718 13.0157 11.1278 13.5417 11.1285 14.0775C11.1285 15.1275 11.673 16.0575 12.498 16.599C12.0097 16.5837 11.5318 16.4537 11.103 16.2195V16.257C11.1076 16.9612 11.3562 17.642 11.8064 18.1835C12.2566 18.7251 12.8805 19.0938 13.572 19.227C13.118 19.3471 12.643 19.3645 12.1815 19.278C12.3827 19.8838 12.7675 20.4119 13.2825 20.7891C13.7976 21.1662 14.4172 21.3736 15.0555 21.3825C13.9604 22.2264 12.616 22.6823 11.2335 22.6785C10.986 22.6785 10.7415 22.6635 10.5 22.6365C11.9107 23.5294 13.5464 24.0024 15.216 24C20.877 24 23.9715 19.383 23.9715 15.378L23.961 14.985C24.5644 14.5609 25.0859 14.0308 25.5 13.4205Z" fill="white"/>
<path d="M9 6C8.20435 6 7.44129 6.31607 6.87868 6.87868C6.31607 7.44129 6 8.20435 6 9V27C6 27.7956 6.31607 28.5587 6.87868 29.1213C7.44129 29.6839 8.20435 30 9 30H27C27.7957 30 28.5587 29.6839 29.1213 29.1213C29.6839 28.5587 30 27.7956 30 27V9C30 8.20435 29.6839 7.44129 29.1213 6.87868C28.5587 6.31607 27.7957 6 27 6H9ZM9 3H27C28.5913 3 30.1174 3.63214 31.2426 4.75736C32.3679 5.88258 33 7.4087 33 9V27C33 28.5913 32.3679 30.1174 31.2426 31.2426C30.1174 32.3679 28.5913 33 27 33H9C7.4087 33 5.88258 32.3679 4.75736 31.2426C3.63214 30.1174 3 28.5913 3 27V9C3 7.4087 3.63214 5.88258 4.75736 4.75736C5.88258 3.63214 7.4087 3 9 3Z" fill="white"/>
</svg>
